<svg width="26" height="32" viewBox="0 0 26 32" fill="none" xmlns="http://www.w3.org/2000/svg">
<path d="M14.3358 15.7922C13.8903 15.3461 13.2907 15.0962 12.6661 15.0962C12.0416 15.0962 11.442 15.3461 10.9965 15.7922C10.9965 15.7922 9.68571 17.1281 9.31213 17.4287L10.4591 32.0001H14.883L16.03 17.4387C15.8137 17.3185 14.3358 15.7922 14.3358 15.7922Z" fill="#FF7010"/>
<path d="M6.04173 15.642C5.61693 15.2183 5.05223 14.9714 4.45821 14.9498C3.86419 14.9282 3.28365 15.1333 2.83028 15.5251L0.536377 17.4889L2.74507 29.9496C2.84655 30.5224 3.14241 31.0407 3.58092 31.4137C4.01942 31.7868 4.57265 31.9908 5.14383 31.9902H9.14832L8.00793 17.5122C7.74905 17.4121 6.04173 15.642 6.04173 15.642Z" fill="#FF7010"/>
<path d="M12.1369 2.68013C12.306 2.74855 12.4858 2.78586 12.6677 2.79034C12.8955 2.79599 13.1207 2.74105 13.3213 2.63095C13.5218 2.52085 13.6907 2.35938 13.8114 2.16247C13.9613 1.93544 14.0412 1.66795 14.0408 1.39432C14.04 1.18167 13.9917 0.971984 13.8996 0.781202C13.8074 0.590421 13.6738 0.423559 13.5088 0.293291C13.3439 0.163024 13.152 0.0727779 12.9478 0.0294094C12.7435 -0.013959 12.5322 -0.0093095 12.33 0.0430052C12.1277 0.0953198 11.9398 0.193924 11.7806 0.331325C11.6213 0.468727 11.4949 0.641312 11.4109 0.835971C11.3269 1.03063 11.2875 1.24224 11.2958 1.45473C11.304 1.66722 11.3597 1.87499 11.4585 2.06227C11.6122 2.33837 11.8505 2.55543 12.1369 2.68013V2.68013Z" fill="#FF7010"/>
<path d="M20.5751 8.51155L20.2016 8.42137L20.1098 8.04064C19.5232 5.7028 17.4358 3.80247 14.7323 3.15455C14.4872 3.47119 14.1721 3.72429 13.8127 3.8932C13.4534 4.0621 13.0599 4.14201 12.6645 4.12642C11.5667 4.12642 10.6589 3.20799 10.6065 3.14453C7.90627 3.79245 5.81882 5.67274 5.23552 8.02394L5.14704 8.42137L4.77018 8.52157C3.19211 8.94102 1.83155 9.96041 0.967964 11.3704C0.104379 12.7803 -0.196662 14.4737 0.126677 16.1029L1.98473 14.5098C2.68681 13.9041 3.58527 13.5869 4.50456 13.6202C5.42384 13.6536 6.29789 14.0351 6.95594 14.6901L8.59444 16.3066L10.0953 14.8271C10.4318 14.4835 10.8327 14.2125 11.274 14.03C11.7154 13.8476 12.1882 13.7575 12.6645 13.765C13.6318 13.7713 14.5589 14.1605 15.25 14.8504L16.7181 16.3133L18.3927 14.6734C19.0515 14.0249 19.9231 13.6488 20.8385 13.6179C21.754 13.587 22.6481 13.9037 23.3475 14.5064L25.2023 16.1029C25.5315 14.4743 25.2351 12.7791 24.3742 11.3667C23.5133 9.95432 22.1535 8.93237 20.5751 8.51155V8.51155Z" fill="#FF7010"/>
<path d="M19.3004 15.6216C19.3004 15.6216 17.5374 17.405 17.3342 17.4852L16.1906 31.9898H20.2016C20.7728 31.9904 21.326 31.7864 21.7645 31.4134C22.203 31.0403 22.4989 30.5221 22.6004 29.9492L23.6982 23.7573L24.7894 17.4885L22.4955 15.5147C22.0441 15.1271 21.4678 14.9235 20.8778 14.9432C20.2879 14.9629 19.7259 15.2046 19.3004 15.6216V15.6216Z" fill="#FF7010"/>
</svg>
