<svg width="17" height="20" viewBox="0 0 17 20" fill="none" xmlns="http://www.w3.org/2000/svg">
<path fill-rule="evenodd" clip-rule="evenodd" d="M8.33338 0C5.69142 0 3.54163 2.14979 3.54163 4.79176C3.54163 7.43372 5.69141 9.58333 8.33338 9.58333C10.9754 9.58333 13.1251 7.43372 13.1251 4.79176C13.1251 2.14979 10.9754 0 8.33338 0ZM4.60887 4.79176C4.60887 2.73768 6.2795 1.06724 8.33338 1.06724C10.3873 1.06724 12.0579 2.73768 12.0579 4.79176C12.0579 6.84566 10.3873 8.51609 8.33338 8.51609C6.27951 8.51609 4.60887 6.84566 4.60887 4.79176Z" fill="#FF7010"/>
<path fill-rule="evenodd" clip-rule="evenodd" d="M4.29719 11.6665C1.92806 11.6665 0 13.6453 0 16.0768V19.4881C0 19.7705 0.223421 19.9998 0.498575 19.9998H16.1681C16.4432 19.9998 16.6667 19.7705 16.6667 19.4881V16.0768C16.6667 13.6453 14.7386 11.6665 12.3695 11.6665H4.29719ZM0.997151 16.0768C0.997151 14.2092 2.4775 12.6899 4.29719 12.6899H12.3695C14.1892 12.6899 15.6695 14.2092 15.6695 16.0768V18.9764H0.997151V16.0768Z" fill="#FF7010"/>
</svg>
