<svg width="32" height="32" viewBox="0 0 32 32" fill="none" xmlns="http://www.w3.org/2000/svg">
<g clip-path="url(#clip0_10103_14855)">
<path d="M26.1551 23.0051C26.2383 23.8688 25.9347 24.7163 25.3215 25.3302C24.7082 25.944 23.8629 26.2475 22.998 26.165C22.2804 26.0956 21.5949 26.4909 21.2957 27.1487C20.9359 27.9389 20.2492 28.5207 19.4117 28.7453C18.5734 28.9698 17.6886 28.8099 16.9832 28.3057C16.8632 28.22 16.7334 28.1564 16.6 28.1056V32C22.0467 31.7977 26.8039 28.8586 29.5394 24.5178L26.1736 22.5728C26.1508 22.7138 26.1409 22.8582 26.1551 23.0051V23.0051Z" fill="#FF7010"/>
<path d="M13.3399 28.8447C13.0891 28.8447 12.8367 28.812 12.5883 28.7454C11.7508 28.5209 11.0641 27.9391 10.7043 27.1491C10.4047 26.4907 9.71838 26.0962 9.00159 26.165C8.13596 26.2467 7.29143 25.9439 6.67854 25.3302C6.06526 24.7163 5.76174 23.8689 5.84495 23.005C5.85906 22.8581 5.84919 22.7138 5.82639 22.5728L2.46057 24.5179C5.19607 28.8587 9.95335 31.7977 15.4 32V28.1057C15.2666 28.1564 15.1368 28.22 15.0168 28.3057C14.5203 28.6603 13.9348 28.8447 13.3399 28.8447V28.8447Z" fill="#FF7010"/>
<path d="M12.8988 4.41489C12.4085 4.54646 12.007 4.88682 11.7964 5.34917C11.2847 6.47387 10.1085 7.1503 8.88667 7.03085C8.38081 6.98217 7.88589 7.15988 7.52729 7.5192C7.16831 7.87833 6.99058 8.37431 7.0394 8.87987C7.07832 9.28433 7.02397 9.67963 6.90356 10.0499L15.4 14.96V5.13955C15.0194 5.05878 14.6502 4.90827 14.3199 4.67236C13.907 4.37715 13.3886 4.2839 12.8988 4.41489V4.41489ZM13.0669 10.9151C12.1613 11.4385 11.0032 11.1279 10.4803 10.2214C9.95747 9.31486 10.2677 8.1557 11.1734 7.63232C12.0791 7.10895 13.2371 7.41955 13.76 8.32605C14.2829 9.23257 13.9726 10.3917 13.0669 10.9151Z" fill="#FF7010"/>
<path d="M4.86172 21.3003C4.07266 20.9408 3.49141 20.2536 3.2668 19.4153C3.04219 18.5768 3.20234 17.6906 3.70625 16.9841C4.12578 16.3954 4.12578 15.6045 3.70625 15.016C3.20234 14.3093 3.04219 13.4231 3.2668 12.5846C3.49141 11.7463 4.07266 11.0591 4.86172 10.6994C4.9959 10.6382 5.11582 10.5576 5.22637 10.4673L1.85801 8.52075C0.673877 10.7549 0 13.2996 0 16C0 18.7003 0.673877 21.2451 1.85801 23.4792L5.22647 21.5326C5.11587 21.4422 4.9959 21.3615 4.86172 21.3003Z" fill="#FF7010"/>
<path d="M19.4117 3.25468C20.2492 3.47911 20.9359 4.06092 21.2957 4.85092C21.5949 5.50936 22.2804 5.90466 22.9984 5.83506C23.8613 5.75198 24.7086 6.05617 25.3215 6.66984C25.9347 7.2837 26.2383 8.13119 26.1551 8.9951C26.1409 9.14196 26.1508 9.28629 26.1736 9.42729L29.5394 7.48218C26.8039 3.14139 22.0467 0.202316 16.6 0V3.89438C16.7334 3.84364 16.8632 3.78003 16.9832 3.69436C17.6886 3.19017 18.5734 3.02966 19.4117 3.25468V3.25468Z" fill="#FF7010"/>
<path d="M4.42584 19.1043C4.55709 19.5948 4.89732 19.9969 5.35943 20.2073C5.72872 20.3758 6.04351 20.6205 6.30372 20.91L14.8002 16L6.30367 11.0898C6.04351 11.3793 5.72867 11.624 5.35943 11.7924C4.89732 12.003 4.55709 12.4051 4.42584 12.8956C4.29459 13.3861 4.38834 13.9048 4.68287 14.3183C5.40044 15.3241 5.40044 16.6758 4.68287 17.6818C4.38834 18.0951 4.29459 18.6138 4.42584 19.1043V19.1043ZM8.24048 14.1046C9.28624 14.1046 10.134 14.9532 10.134 16C10.134 17.0467 9.28624 17.8953 8.24048 17.8953C7.19468 17.8953 6.34693 17.0467 6.34693 16C6.34693 14.9532 7.19468 14.1046 8.24048 14.1046Z" fill="#FF7010"/>
<path d="M2.46057 7.48218L5.82639 9.42727C5.84924 9.28622 5.85906 9.14184 5.84495 8.9949C5.76174 8.13119 6.06526 7.28371 6.67854 6.66984C7.29182 6.05598 8.13713 5.75237 9.00198 5.83506C9.71721 5.90564 10.4051 5.50897 10.7043 4.85132C11.0641 4.06111 11.7508 3.47931 12.5883 3.25468C13.4262 3.03005 14.311 3.19017 15.0168 3.69436C15.1368 3.78003 15.2666 3.84364 15.4 3.89438V0C9.95335 0.202316 5.19607 3.14139 2.46057 7.48218V7.48218Z" fill="#FF7010"/>
<path d="M30.142 8.52075L26.7736 10.4674C26.8842 10.5577 27.0041 10.6384 27.1383 10.6996C27.9274 11.0591 28.5086 11.7463 28.7332 12.5846C28.9578 13.4231 28.7977 14.3093 28.2938 15.0158C27.8742 15.6045 27.8742 16.3954 28.2938 16.9839C28.7977 17.6906 28.9578 18.5768 28.7332 19.4153C28.5086 20.2536 27.9274 20.9408 27.1383 21.3005C27.0041 21.3617 26.8842 21.4423 26.7737 21.5326L30.142 23.4792C31.3261 21.2451 32 18.7003 32 16C32 13.2996 31.3261 10.7549 30.142 8.52075V8.52075Z" fill="#FF7010"/>
<path d="M7.0394 23.12C6.99058 23.6257 7.16831 24.1217 7.52729 24.4808C7.88589 24.84 8.38511 25.0163 8.88628 24.9692C10.1191 24.8495 11.2851 25.5267 11.7964 26.6509C12.007 27.113 12.4085 27.4536 12.8988 27.5851C13.3882 27.7165 13.907 27.6229 14.3199 27.3277C14.6502 27.0918 15.0194 26.9412 15.4 26.8604V17.04L6.90356 21.9501C7.02397 22.3203 7.07832 22.7156 7.0394 23.12V23.12ZM10.4803 21.7786C11.0032 20.8721 12.1613 20.5615 13.0669 21.0849C13.9726 21.6083 14.2829 22.7675 13.76 23.674C13.2371 24.5805 12.0791 24.8911 11.1734 24.3677C10.2677 23.8443 9.95747 22.6852 10.4803 21.7786V21.7786Z" fill="#FF7010"/>
<path d="M19.1011 27.5851C19.5914 27.4536 19.9929 27.1132 20.2035 26.6509C20.7152 25.5264 21.8914 24.8517 23.1133 24.9692C23.6176 25.0159 24.114 24.8398 24.4726 24.4808C24.8316 24.1217 25.0094 23.6257 24.9605 23.1202C24.9216 22.7157 24.976 22.3204 25.0964 21.9501L16.6 17.04V26.8604C16.9805 26.9412 17.3497 27.0917 17.6801 27.3277C18.0933 27.6231 18.6121 27.7167 19.1011 27.5851V27.5851ZM18.933 21.0849C19.8386 20.5615 20.9968 20.8721 21.5196 21.7786C22.0425 22.6852 21.7322 23.8443 20.8265 24.3677C19.9209 24.8911 18.7628 24.5805 18.2399 23.674C17.7171 22.7675 18.0274 21.6083 18.933 21.0849Z" fill="#FF7010"/>
<path d="M27.5742 12.8956C27.4429 12.4051 27.1027 12.003 26.6406 11.7926C26.2713 11.6241 25.9565 11.3794 25.6963 11.0898L17.1998 15.9999L25.6964 20.91C25.9565 20.6206 26.2713 20.3759 26.6406 20.2074C27.1027 19.9969 27.4429 19.5948 27.5742 19.1042C27.7054 18.6137 27.6117 18.0951 27.3172 17.6816C26.5996 16.6758 26.5996 15.3241 27.3172 14.3181C27.6117 13.9048 27.7054 13.3861 27.5742 12.8956V12.8956ZM23.7595 17.8952C22.7138 17.8952 21.866 17.0467 21.866 15.9999C21.866 14.9532 22.7138 14.1046 23.7595 14.1046C24.8053 14.1046 25.6531 14.9532 25.6531 15.9999C25.6531 17.0467 24.8053 17.8952 23.7595 17.8952Z" fill="#FF7010"/>
<path d="M24.9605 8.87991C25.0094 8.37415 24.8316 7.87818 24.4726 7.51905C24.114 7.15991 23.6144 6.9824 23.1136 7.03069C21.8812 7.14897 20.7148 6.47332 20.2035 5.34901C19.9929 4.88686 19.5914 4.5463 19.1011 4.41473C18.6117 4.28355 18.0933 4.377 17.6801 4.6722C17.3497 4.90812 16.9805 5.05863 16.6 5.13939V14.9598L25.0964 10.0498C24.976 9.67955 24.9216 9.2843 24.9605 8.87991V8.87991ZM21.5196 10.2212C20.9968 11.1277 19.8386 11.4383 18.933 10.9149C18.0274 10.3916 17.7171 9.23242 18.2399 8.32589C18.7628 7.41939 19.9209 7.10879 20.8265 7.63217C21.7322 8.15554 22.0425 9.3147 21.5196 10.2212Z" fill="#FF7010"/>
</g>
<defs>
<clipPath id="clip0_10103_14855">
<rect width="32" height="32" fill="white"/>
</clipPath>
</defs>
</svg>
