<svg width="24" height="32" viewBox="0 0 24 32" fill="none" xmlns="http://www.w3.org/2000/svg">
<path d="M23.9316 18.7355C23.5651 13.9631 21.3431 10.9724 19.3828 8.3333C17.5677 5.89006 16 3.78018 16 0.667808C16 0.417808 15.86 0.189308 15.638 0.074746C15.4153 -0.0405039 15.1477 -0.021629 14.9453 0.125496C12.0013 2.23212 9.54493 5.78268 8.68687 9.17043C8.09118 11.529 8.01237 14.1805 8.00131 15.9317C5.28256 15.351 4.66669 11.2842 4.66019 11.2399C4.62956 11.029 4.50069 10.8454 4.31319 10.7452C4.12375 10.6462 3.90106 10.6391 3.709 10.7341C3.56644 10.8031 0.209625 12.5087 0.0143123 19.3188C0.000624767 19.5454 0 19.7726 0 19.9998C0 26.6159 5.38344 31.999 12 31.999C12.0091 31.9996 12.0189 32.0009 12.0267 31.999C12.0293 31.999 12.0319 31.999 12.0351 31.999C18.6354 31.98 24 26.6042 24 19.9998C24 19.6671 23.9316 18.7355 23.9316 18.7355ZM12 30.6657C9.79425 30.6657 8 28.7544 8 26.405C8 26.3249 7.99937 26.2442 8.00518 26.1452C8.03187 25.1544 8.22006 24.478 8.42643 24.0282C8.81318 24.8589 9.50456 25.6225 10.6276 25.6225C10.9961 25.6225 11.2943 25.3243 11.2943 24.9559C11.2943 24.0067 11.3139 22.9117 11.5502 21.9235C11.7605 21.0472 12.2631 20.115 12.8998 19.3677C13.183 20.3377 13.7351 21.1227 14.2742 21.889C15.0457 22.9852 15.8432 24.1187 15.9832 26.0515C15.9916 26.166 16.0001 26.2813 16.0001 26.405C16 28.7544 14.2057 30.6657 12 30.6657Z" fill="#E23535"/>
</svg>
