<svg width="32" height="20" viewBox="0 0 32 20" fill="none" xmlns="http://www.w3.org/2000/svg">
<path d="M19.4592 13.3818C15.2035 13.3818 11.1928 14.0078 7.86072 15.1921C7.0382 15.4844 6.18197 15.6328 5.31602 15.6327C4.24815 15.6327 3.21339 15.4049 2.26892 14.9854C3.04472 17.87 5.68714 20 8.81917 20H24.3109C27.475 20 30.1398 17.8261 30.8847 14.8964C30.5829 14.8954 30.2828 14.8536 29.9925 14.7714C26.7797 13.8624 23.1373 13.3818 19.4592 13.3818V13.3818Z" fill="#FF7010"/>
<path d="M10.0412 12.2524C11.3703 11.929 12.7599 11.6777 14.187 11.5004C11.4048 8.45968 11.1456 3.3412 13.6836 0C11.6401 0.0628628 9.64505 0.396932 7.78747 0.974374C6.83572 1.88611 6.16031 3.06045 5.85961 4.35141C5.04673 7.5583 6.94331 11.1184 10.0412 12.2524Z" fill="#FF7010"/>
<path d="M7.10386 13.1221C4.32169 11.0409 2.8729 7.44349 3.70934 3.85267C3.81487 3.39963 3.95712 2.95812 4.12984 2.53027C3.3926 2.94175 2.69658 3.39948 2.05082 3.90158C-1.9576 6.99992 0.324821 13.4418 5.31605 13.4297C5.91007 13.4297 6.51367 13.3298 7.10386 13.1221V13.1221Z" fill="#FF7010"/>
<path d="M25.9456 3.22607C24.9726 3.70452 24.188 4.48972 23.7114 5.47335C22.91 7.12702 23.1105 9.04955 24.1766 10.487C24.3414 10.7092 24.9471 11.3774 25.0034 11.529C26.9269 11.774 28.8099 12.147 30.595 12.6521C30.9659 12.7571 31.3652 12.6612 31.6477 12.3991C31.9303 12.137 32.0551 11.7466 31.9772 11.3696C31.3028 8.10955 29.0905 5.25898 25.9456 3.22607V3.22607Z" fill="#FF7010"/>
<path d="M17.1895 11.2381C18.7929 11.1552 20.4195 11.1612 22.0379 11.2552C20.8139 9.24152 20.6576 6.7143 21.7238 4.51417C22.2035 3.52423 22.8985 2.67316 23.7499 2.01215C21.6112 1.00796 19.1782 0.337909 16.5856 0.0927734C13.0769 2.98109 13.4068 8.76916 17.1895 11.2381V11.2381Z" fill="#FF7010"/>
</svg>
